<svg width="24" height="25" viewBox="0 0 24 25" fill="none" xmlns="http://www.w3.org/2000/svg">
<path fill-rule="evenodd" clip-rule="evenodd" d="M12 1.46447C12.5523 1.46447 13 1.91218 13 2.46447L13 22.2635C13 22.8157 12.5523 23.2635 12 23.2635C11.4477 23.2635 11 22.8157 11 22.2635V2.46447C11 1.91218 11.4477 1.46447 12 1.46447Z" fill="#141415"/>
<path fill-rule="evenodd" clip-rule="evenodd" d="M1.10051 12.364C1.10051 11.8117 1.54822 11.364 2.10051 11.364H21.8995C22.4518 11.364 22.8995 11.8117 22.8995 12.364C22.8995 12.9162 22.4518 13.364 21.8995 13.364L2.10051 13.364C1.54822 13.364 1.10051 12.9162 1.10051 12.364Z" fill="#141415"/>
</svg>
