<svg width="24" height="25" viewBox="0 0 24 25" fill="none" xmlns="http://www.w3.org/2000/svg">
<path d="M13.05 6.36395C13.05 7.19238 12.3784 7.86395 11.55 7.86395C10.7216 7.86395 10.05 7.19238 10.05 6.36395C10.05 5.53553 10.7216 4.86395 11.55 4.86395C12.3784 4.86395 13.05 5.53553 13.05 6.36395Z" fill="black"/>
<path d="M13.05 12.364C13.05 13.1924 12.3784 13.864 11.55 13.864C10.7216 13.864 10.05 13.1924 10.05 12.364C10.05 11.5355 10.7216 10.864 11.55 10.864C12.3784 10.864 13.05 11.5355 13.05 12.364Z" fill="black"/>
<path d="M13.05 18.364C13.05 19.1924 12.3784 19.864 11.55 19.864C10.7216 19.864 10.05 19.1924 10.05 18.364C10.05 17.5355 10.7216 16.864 11.55 16.864C12.3784 16.864 13.05 17.5355 13.05 18.364Z" fill="black"/>
</svg>
