<svg width="512" height="512" viewBox="0 0 512 512" fill="none" xmlns="http://www.w3.org/2000/svg">
<path fill-rule="evenodd" clip-rule="evenodd" d="M255.75 70.5C150.637 70.5 65.5 155.611 65.5 260.692C65.5 344.852 119.959 415.936 195.583 441.137C205.096 442.801 208.663 437.095 208.663 432.103C208.663 427.585 208.425 412.608 208.425 396.679C160.625 405.476 148.259 385.03 144.454 374.332C142.313 368.864 133.039 351.984 124.953 347.467C118.294 343.901 108.782 335.105 124.715 334.867C139.698 334.629 150.399 348.656 153.966 354.362C171.089 383.128 198.437 375.045 209.377 370.052C211.041 357.69 216.035 349.369 221.505 344.614C179.174 339.859 134.941 323.455 134.941 250.707C134.941 230.024 142.313 212.906 154.442 199.593C152.539 194.838 145.881 175.343 156.344 149.192C156.344 149.192 172.278 144.199 208.663 168.687C223.883 164.407 240.054 162.268 256.226 162.268C272.397 162.268 288.568 164.407 303.788 168.687C340.173 143.962 356.107 149.192 356.107 149.192C366.571 175.343 359.912 194.838 358.009 199.593C370.138 212.906 377.51 229.786 377.51 250.707C377.51 323.693 333.039 339.859 290.708 344.614C297.605 350.558 303.55 361.969 303.55 379.8C303.55 405.238 303.312 425.684 303.312 432.103C303.312 437.095 306.88 443.039 316.392 441.137C391.541 415.936 446 344.614 446 260.692C446 155.611 360.863 70.5 255.75 70.5Z" fill="black"/>
</svg>
